<mxfile host="app.diagrams.net" modified="2022-11-09T06:06:12.465Z" agent="5.0 (Macintosh; Intel Mac OS X 10_15_6) AppleWebKit/537.36 (KHTML, like Gecko) Chrome/107.0.0.0 Safari/537.36" etag="TibmR0SE8dbk8sy2Ljjj" version="20.5.1" type="github">
  <diagram name="Page-1" id="13e1069c-82ec-6db2-03f1-153e76fe0fe0">
    <mxGraphModel dx="1159" dy="542" grid="1" gridSize="10" guides="1" tooltips="1" connect="1" arrows="1" fold="1" page="1" pageScale="1" pageWidth="1100" pageHeight="850" background="none" math="0" shadow="0">
      <root>
        <mxCell id="0" />
        <mxCell id="1" parent="0" />
        <mxCell id="7baba1c4bc27f4b0-2" value="收银台服务" style="shape=umlLifeline;perimeter=lifelinePerimeter;whiteSpace=wrap;html=1;container=1;collapsible=0;recursiveResize=0;outlineConnect=0;rounded=1;shadow=0;comic=0;labelBackgroundColor=none;strokeWidth=1;fontFamily=Verdana;fontSize=12;align=center;" parent="1" vertex="1">
          <mxGeometry x="220" y="80" width="175" height="1470" as="geometry" />
        </mxCell>
        <mxCell id="7baba1c4bc27f4b0-10" value="" style="html=1;points=[];perimeter=orthogonalPerimeter;rounded=0;shadow=0;comic=0;labelBackgroundColor=none;strokeWidth=1;fontFamily=Verdana;fontSize=12;align=center;" parent="7baba1c4bc27f4b0-2" vertex="1">
          <mxGeometry x="82" y="100" width="10" height="690" as="geometry" />
        </mxCell>
        <mxCell id="xyKEQfK3_lfIhWD5vXNs-5" value="渲染收银台" style="text;html=1;strokeColor=none;fillColor=none;align=center;verticalAlign=middle;whiteSpace=wrap;rounded=0;" parent="7baba1c4bc27f4b0-2" vertex="1">
          <mxGeometry x="70" y="225" width="100" height="30" as="geometry" />
        </mxCell>
        <mxCell id="xyKEQfK3_lfIhWD5vXNs-7" value="去支付" style="text;html=1;strokeColor=none;fillColor=none;align=center;verticalAlign=middle;whiteSpace=wrap;rounded=0;" parent="7baba1c4bc27f4b0-2" vertex="1">
          <mxGeometry x="110" y="270" width="60" height="30" as="geometry" />
        </mxCell>
        <mxCell id="xyKEQfK3_lfIhWD5vXNs-12" value="" style="html=1;points=[];perimeter=orthogonalPerimeter;" parent="7baba1c4bc27f4b0-2" vertex="1">
          <mxGeometry x="85" y="557" width="10" height="40" as="geometry" />
        </mxCell>
        <mxCell id="xyKEQfK3_lfIhWD5vXNs-13" value="&lt;font color=&quot;#ff6666&quot;&gt;关单成功或不存在&lt;br&gt;处理中支付单。&lt;br&gt;查询用户微企付&lt;br&gt;openid，&lt;br&gt;不存在则落库用户id&lt;/font&gt;" style="edgeStyle=orthogonalEdgeStyle;html=1;align=left;spacingLeft=2;endArrow=block;rounded=0;entryX=1;entryY=0;" parent="7baba1c4bc27f4b0-2" edge="1">
          <mxGeometry relative="1" as="geometry">
            <mxPoint x="90" y="547" as="sourcePoint" />
            <Array as="points">
              <mxPoint x="120" y="547" />
            </Array>
            <mxPoint x="95" y="567" as="targetPoint" />
          </mxGeometry>
        </mxCell>
        <mxCell id="xyKEQfK3_lfIhWD5vXNs-24" value="" style="html=1;verticalAlign=bottom;endArrow=open;dashed=1;endSize=8;rounded=0;exitX=0.1;exitY=0.744;exitDx=0;exitDy=0;exitPerimeter=0;" parent="7baba1c4bc27f4b0-2" edge="1">
          <mxGeometry relative="1" as="geometry">
            <mxPoint x="366" y="710.3199999999999" as="sourcePoint" />
            <mxPoint x="90" y="712" as="targetPoint" />
          </mxGeometry>
        </mxCell>
        <mxCell id="IwaLHwL77LZaqG5Fma9a-1" value="" style="html=1;points=[];perimeter=orthogonalPerimeter;fontColor=#FF6666;" parent="7baba1c4bc27f4b0-2" vertex="1">
          <mxGeometry x="85" y="1225" width="10" height="80" as="geometry" />
        </mxCell>
        <mxCell id="4LSfCPXXrn_912--uWGv-1" value="" style="html=1;points=[];perimeter=orthogonalPerimeter;" parent="7baba1c4bc27f4b0-2" vertex="1">
          <mxGeometry x="87" y="340" width="10" height="150" as="geometry" />
        </mxCell>
        <mxCell id="4LSfCPXXrn_912--uWGv-2" value="&lt;font color=&quot;#ff6666&quot;&gt;如果存在微企付&lt;br&gt;处理中支付单&lt;/font&gt;" style="edgeStyle=orthogonalEdgeStyle;html=1;align=left;spacingLeft=2;endArrow=block;rounded=0;entryX=1;entryY=0;" parent="7baba1c4bc27f4b0-2" target="4LSfCPXXrn_912--uWGv-1" edge="1">
          <mxGeometry relative="1" as="geometry">
            <mxPoint x="92" y="320" as="sourcePoint" />
            <Array as="points">
              <mxPoint x="122" y="320" />
            </Array>
          </mxGeometry>
        </mxCell>
        <mxCell id="4LSfCPXXrn_912--uWGv-9" value="关单成功或失败" style="html=1;verticalAlign=bottom;endArrow=open;dashed=1;endSize=8;rounded=0;" parent="7baba1c4bc27f4b0-2" edge="1">
          <mxGeometry x="0.434" y="-11" relative="1" as="geometry">
            <mxPoint x="360" y="411" as="sourcePoint" />
            <mxPoint x="95" y="411" as="targetPoint" />
            <mxPoint as="offset" />
          </mxGeometry>
        </mxCell>
        <mxCell id="4LSfCPXXrn_912--uWGv-10" value="&lt;font color=&quot;#ff6666&quot;&gt;关单失败，&lt;br&gt;提示存在已经&lt;br&gt;存在待支付订单&lt;/font&gt;" style="html=1;verticalAlign=bottom;endArrow=block;rounded=0;" parent="7baba1c4bc27f4b0-2" edge="1">
          <mxGeometry width="80" relative="1" as="geometry">
            <mxPoint x="97" y="474" as="sourcePoint" />
            <mxPoint x="237.5" y="474" as="targetPoint" />
          </mxGeometry>
        </mxCell>
        <mxCell id="7baba1c4bc27f4b0-3" value="收银台H5" style="shape=umlLifeline;perimeter=lifelinePerimeter;whiteSpace=wrap;html=1;container=1;collapsible=0;recursiveResize=0;outlineConnect=0;rounded=1;shadow=0;comic=0;labelBackgroundColor=none;strokeWidth=1;fontFamily=Verdana;fontSize=12;align=center;" parent="1" vertex="1">
          <mxGeometry x="400" y="80" width="122" height="1470" as="geometry" />
        </mxCell>
        <mxCell id="7baba1c4bc27f4b0-13" value="" style="html=1;points=[];perimeter=orthogonalPerimeter;rounded=0;shadow=0;comic=0;labelBackgroundColor=none;strokeWidth=1;fontFamily=Verdana;fontSize=12;align=center;" parent="7baba1c4bc27f4b0-3" vertex="1">
          <mxGeometry x="56" y="210" width="10" height="620" as="geometry" />
        </mxCell>
        <mxCell id="xyKEQfK3_lfIhWD5vXNs-34" value="&lt;font color=&quot;#000000&quot;&gt;return&lt;/font&gt;" style="html=1;verticalAlign=bottom;endArrow=open;dashed=1;endSize=8;rounded=0;fontColor=#FF6666;exitX=-0.247;exitY=0.949;exitDx=0;exitDy=0;exitPerimeter=0;" parent="7baba1c4bc27f4b0-3" edge="1">
          <mxGeometry relative="1" as="geometry">
            <mxPoint x="617.53" y="800.27" as="sourcePoint" />
            <mxPoint x="65" y="802" as="targetPoint" />
          </mxGeometry>
        </mxCell>
        <mxCell id="xyKEQfK3_lfIhWD5vXNs-63" value="" style="html=1;verticalAlign=bottom;endArrow=open;dashed=1;endSize=8;rounded=0;fontColor=#FF6666;entryX=1;entryY=0.363;entryDx=0;entryDy=0;entryPerimeter=0;" parent="7baba1c4bc27f4b0-3" edge="1">
          <mxGeometry relative="1" as="geometry">
            <mxPoint x="180" y="1258" as="sourcePoint" />
            <mxPoint x="-85" y="1258.04" as="targetPoint" />
          </mxGeometry>
        </mxCell>
        <mxCell id="GGXnZ2PZDXj9v8e5pTdY-3" value="绑定用户id和微企付openid" style="edgeLabel;html=1;align=center;verticalAlign=middle;resizable=0;points=[];" vertex="1" connectable="0" parent="xyKEQfK3_lfIhWD5vXNs-63">
          <mxGeometry x="-0.2302" y="-1" relative="1" as="geometry">
            <mxPoint x="-14" y="-11" as="offset" />
          </mxGeometry>
        </mxCell>
        <mxCell id="7baba1c4bc27f4b0-4" value="支付系统" style="shape=umlLifeline;perimeter=lifelinePerimeter;whiteSpace=wrap;html=1;container=1;collapsible=0;recursiveResize=0;outlineConnect=0;rounded=1;shadow=0;comic=0;labelBackgroundColor=none;strokeWidth=1;fontFamily=Verdana;fontSize=12;align=center;" parent="1" vertex="1">
          <mxGeometry x="540" y="80" width="100" height="1470" as="geometry" />
        </mxCell>
        <mxCell id="xyKEQfK3_lfIhWD5vXNs-14" value="" style="endArrow=classic;html=1;rounded=0;" parent="7baba1c4bc27f4b0-4" edge="1">
          <mxGeometry width="50" height="50" relative="1" as="geometry">
            <mxPoint x="61" y="599" as="sourcePoint" />
            <mxPoint x="180.5" y="599" as="targetPoint" />
          </mxGeometry>
        </mxCell>
        <mxCell id="xyKEQfK3_lfIhWD5vXNs-23" value="return" style="html=1;verticalAlign=bottom;endArrow=open;dashed=1;endSize=8;rounded=0;exitX=-0.488;exitY=0.673;exitDx=0;exitDy=0;exitPerimeter=0;" parent="7baba1c4bc27f4b0-4" edge="1">
          <mxGeometry relative="1" as="geometry">
            <mxPoint x="180.1199999999999" y="710.25" as="sourcePoint" />
            <mxPoint x="60" y="712" as="targetPoint" />
          </mxGeometry>
        </mxCell>
        <mxCell id="xyKEQfK3_lfIhWD5vXNs-37" value="" style="html=1;points=[];perimeter=orthogonalPerimeter;fontColor=#000000;" parent="7baba1c4bc27f4b0-4" vertex="1">
          <mxGeometry x="45" y="845" width="10" height="170" as="geometry" />
        </mxCell>
        <mxCell id="xyKEQfK3_lfIhWD5vXNs-38" value="" style="html=1;points=[];perimeter=orthogonalPerimeter;fontColor=#000000;" parent="7baba1c4bc27f4b0-4" vertex="1">
          <mxGeometry x="49" y="885" width="10" height="40" as="geometry" />
        </mxCell>
        <mxCell id="xyKEQfK3_lfIhWD5vXNs-39" value="查询支付结果" style="edgeStyle=orthogonalEdgeStyle;html=1;align=left;spacingLeft=2;endArrow=block;rounded=0;entryX=1;entryY=0;fontColor=#000000;" parent="7baba1c4bc27f4b0-4" target="xyKEQfK3_lfIhWD5vXNs-38" edge="1">
          <mxGeometry relative="1" as="geometry">
            <mxPoint x="54" y="865" as="sourcePoint" />
            <Array as="points">
              <mxPoint x="84" y="865" />
            </Array>
          </mxGeometry>
        </mxCell>
        <mxCell id="xyKEQfK3_lfIhWD5vXNs-43" value="return" style="html=1;verticalAlign=bottom;endArrow=open;dashed=1;endSize=8;rounded=0;fontColor=#000000;exitX=-0.324;exitY=0.653;exitDx=0;exitDy=0;exitPerimeter=0;" parent="7baba1c4bc27f4b0-4" source="xyKEQfK3_lfIhWD5vXNs-40" edge="1">
          <mxGeometry relative="1" as="geometry">
            <mxPoint x="137" y="944" as="sourcePoint" />
            <mxPoint x="57" y="944" as="targetPoint" />
          </mxGeometry>
        </mxCell>
        <mxCell id="xyKEQfK3_lfIhWD5vXNs-53" value="" style="html=1;points=[];perimeter=orthogonalPerimeter;fontColor=#000000;" parent="7baba1c4bc27f4b0-4" vertex="1">
          <mxGeometry x="45" y="1055" width="10" height="255" as="geometry" />
        </mxCell>
        <mxCell id="xyKEQfK3_lfIhWD5vXNs-54" value="" style="html=1;verticalAlign=bottom;endArrow=open;dashed=1;endSize=8;rounded=0;fontColor=#000000;" parent="7baba1c4bc27f4b0-4" edge="1">
          <mxGeometry relative="1" as="geometry">
            <mxPoint x="320" y="1105" as="sourcePoint" />
            <mxPoint x="200" y="1105" as="targetPoint" />
          </mxGeometry>
        </mxCell>
        <mxCell id="xyKEQfK3_lfIhWD5vXNs-57" value="处理支付单" style="html=1;verticalAlign=bottom;endArrow=open;dashed=1;endSize=8;rounded=0;fontColor=#000000;" parent="7baba1c4bc27f4b0-4" edge="1">
          <mxGeometry relative="1" as="geometry">
            <mxPoint x="180" y="1115" as="sourcePoint" />
            <mxPoint x="60" y="1115" as="targetPoint" />
          </mxGeometry>
        </mxCell>
        <mxCell id="xyKEQfK3_lfIhWD5vXNs-68" value="" style="html=1;points=[];perimeter=orthogonalPerimeter;fontColor=#000000;" parent="7baba1c4bc27f4b0-4" vertex="1">
          <mxGeometry x="45" y="1345" width="10" height="95" as="geometry" />
        </mxCell>
        <mxCell id="xyKEQfK3_lfIhWD5vXNs-73" value="return" style="html=1;verticalAlign=bottom;endArrow=open;dashed=1;endSize=8;rounded=0;fontColor=#000000;exitX=-0.138;exitY=0.688;exitDx=0;exitDy=0;exitPerimeter=0;" parent="7baba1c4bc27f4b0-4" edge="1">
          <mxGeometry relative="1" as="geometry">
            <mxPoint x="320.62000000000035" y="1413.8" as="sourcePoint" />
            <mxPoint x="57" y="1415" as="targetPoint" />
          </mxGeometry>
        </mxCell>
        <mxCell id="4LSfCPXXrn_912--uWGv-4" value="dispatch" style="html=1;verticalAlign=bottom;endArrow=block;rounded=0;" parent="7baba1c4bc27f4b0-4" target="7baba1c4bc27f4b0-5" edge="1">
          <mxGeometry width="80" relative="1" as="geometry">
            <mxPoint x="60" y="360" as="sourcePoint" />
            <mxPoint x="140" y="360" as="targetPoint" />
          </mxGeometry>
        </mxCell>
        <mxCell id="4LSfCPXXrn_912--uWGv-8" value="return" style="html=1;verticalAlign=bottom;endArrow=open;dashed=1;endSize=8;rounded=0;" parent="7baba1c4bc27f4b0-4" edge="1">
          <mxGeometry relative="1" as="geometry">
            <mxPoint x="180" y="380" as="sourcePoint" />
            <mxPoint x="60" y="380" as="targetPoint" />
          </mxGeometry>
        </mxCell>
        <mxCell id="GGXnZ2PZDXj9v8e5pTdY-1" value="" style="html=1;points=[];perimeter=orthogonalPerimeter;" vertex="1" parent="7baba1c4bc27f4b0-4">
          <mxGeometry x="50" y="1250" width="10" height="40" as="geometry" />
        </mxCell>
        <mxCell id="GGXnZ2PZDXj9v8e5pTdY-2" value="支付完成事件&lt;br&gt;通知收银台" style="edgeStyle=orthogonalEdgeStyle;html=1;align=left;spacingLeft=2;endArrow=block;rounded=0;entryX=1;entryY=0;" edge="1" target="GGXnZ2PZDXj9v8e5pTdY-1" parent="7baba1c4bc27f4b0-4">
          <mxGeometry relative="1" as="geometry">
            <mxPoint x="55" y="1230" as="sourcePoint" />
            <Array as="points">
              <mxPoint x="85" y="1230" />
            </Array>
          </mxGeometry>
        </mxCell>
        <mxCell id="7baba1c4bc27f4b0-5" value="支付渠道" style="shape=umlLifeline;perimeter=lifelinePerimeter;whiteSpace=wrap;html=1;container=1;collapsible=0;recursiveResize=0;outlineConnect=0;rounded=1;shadow=0;comic=0;labelBackgroundColor=none;strokeWidth=1;fontFamily=Verdana;fontSize=12;align=center;" parent="1" vertex="1">
          <mxGeometry x="680" y="80" width="100" height="1470" as="geometry" />
        </mxCell>
        <mxCell id="xyKEQfK3_lfIhWD5vXNs-15" value="" style="html=1;points=[];perimeter=orthogonalPerimeter;" parent="7baba1c4bc27f4b0-5" vertex="1">
          <mxGeometry x="50" y="632" width="10" height="40" as="geometry" />
        </mxCell>
        <mxCell id="xyKEQfK3_lfIhWD5vXNs-16" value="根据是否&lt;br&gt;存在openid&lt;br&gt;调用不同&lt;br&gt;下单接口&lt;br&gt;" style="edgeStyle=orthogonalEdgeStyle;html=1;align=left;spacingLeft=2;endArrow=block;rounded=0;entryX=1;entryY=0;" parent="7baba1c4bc27f4b0-5" target="xyKEQfK3_lfIhWD5vXNs-15" edge="1">
          <mxGeometry relative="1" as="geometry">
            <mxPoint x="55" y="612" as="sourcePoint" />
            <Array as="points">
              <mxPoint x="85" y="612" />
            </Array>
          </mxGeometry>
        </mxCell>
        <mxCell id="xyKEQfK3_lfIhWD5vXNs-22" value="返回收微企付&lt;br&gt;银台链接" style="html=1;verticalAlign=bottom;endArrow=open;dashed=1;endSize=8;rounded=0;" parent="7baba1c4bc27f4b0-5" edge="1">
          <mxGeometry relative="1" as="geometry">
            <mxPoint x="189.5" y="712" as="sourcePoint" />
            <mxPoint x="60" y="712" as="targetPoint" />
          </mxGeometry>
        </mxCell>
        <mxCell id="xyKEQfK3_lfIhWD5vXNs-55" value="" style="html=1;points=[];perimeter=orthogonalPerimeter;fontColor=#000000;" parent="7baba1c4bc27f4b0-5" vertex="1">
          <mxGeometry x="45" y="1085" width="10" height="220" as="geometry" />
        </mxCell>
        <mxCell id="4LSfCPXXrn_912--uWGv-6" value="dispatch" style="html=1;verticalAlign=bottom;endArrow=block;rounded=0;" parent="7baba1c4bc27f4b0-5" edge="1">
          <mxGeometry width="80" relative="1" as="geometry">
            <mxPoint x="48" y="360" as="sourcePoint" />
            <mxPoint x="187.5" y="360" as="targetPoint" />
          </mxGeometry>
        </mxCell>
        <mxCell id="4LSfCPXXrn_912--uWGv-7" value="return" style="html=1;verticalAlign=bottom;endArrow=open;dashed=1;endSize=8;rounded=0;exitX=0;exitY=0.75;exitDx=0;exitDy=0;exitPerimeter=0;" parent="7baba1c4bc27f4b0-5" source="4LSfCPXXrn_912--uWGv-5" edge="1">
          <mxGeometry relative="1" as="geometry">
            <mxPoint x="140" y="380" as="sourcePoint" />
            <mxPoint x="60" y="380" as="targetPoint" />
          </mxGeometry>
        </mxCell>
        <mxCell id="7baba1c4bc27f4b0-6" value="微企付后台" style="shape=umlLifeline;perimeter=lifelinePerimeter;whiteSpace=wrap;html=1;container=1;collapsible=0;recursiveResize=0;outlineConnect=0;rounded=1;shadow=0;comic=0;labelBackgroundColor=none;strokeWidth=1;fontFamily=Verdana;fontSize=12;align=center;" parent="1" vertex="1">
          <mxGeometry x="820" y="80" width="100" height="1480" as="geometry" />
        </mxCell>
        <mxCell id="xyKEQfK3_lfIhWD5vXNs-17" value="" style="html=1;points=[];perimeter=orthogonalPerimeter;" parent="7baba1c4bc27f4b0-6" vertex="1">
          <mxGeometry x="45" y="577" width="10" height="184" as="geometry" />
        </mxCell>
        <mxCell id="xyKEQfK3_lfIhWD5vXNs-40" value="" style="html=1;points=[];perimeter=orthogonalPerimeter;fontColor=#000000;" parent="7baba1c4bc27f4b0-6" vertex="1">
          <mxGeometry x="44" y="865" width="10" height="120" as="geometry" />
        </mxCell>
        <mxCell id="xyKEQfK3_lfIhWD5vXNs-48" value="" style="html=1;points=[];perimeter=orthogonalPerimeter;fontColor=#000000;" parent="7baba1c4bc27f4b0-6" vertex="1">
          <mxGeometry x="45" y="1055" width="10" height="150" as="geometry" />
        </mxCell>
        <mxCell id="xyKEQfK3_lfIhWD5vXNs-51" value="" style="html=1;points=[];perimeter=orthogonalPerimeter;fontColor=#000000;" parent="7baba1c4bc27f4b0-6" vertex="1">
          <mxGeometry x="49" y="1095" width="10" height="40" as="geometry" />
        </mxCell>
        <mxCell id="xyKEQfK3_lfIhWD5vXNs-52" value="支付结果&lt;br&gt;回调通知" style="edgeStyle=orthogonalEdgeStyle;html=1;align=left;spacingLeft=2;endArrow=block;rounded=0;entryX=1;entryY=0;fontColor=#000000;" parent="7baba1c4bc27f4b0-6" target="xyKEQfK3_lfIhWD5vXNs-51" edge="1">
          <mxGeometry relative="1" as="geometry">
            <mxPoint x="54" y="1075" as="sourcePoint" />
            <Array as="points">
              <mxPoint x="84" y="1075" />
            </Array>
          </mxGeometry>
        </mxCell>
        <mxCell id="xyKEQfK3_lfIhWD5vXNs-65" value="" style="html=1;points=[];perimeter=orthogonalPerimeter;fontColor=#000000;" parent="7baba1c4bc27f4b0-6" vertex="1">
          <mxGeometry x="45" y="1335" width="10" height="100" as="geometry" />
        </mxCell>
        <mxCell id="4LSfCPXXrn_912--uWGv-5" value="" style="html=1;points=[];perimeter=orthogonalPerimeter;" parent="7baba1c4bc27f4b0-6" vertex="1">
          <mxGeometry x="45" y="320" width="10" height="80" as="geometry" />
        </mxCell>
        <mxCell id="7baba1c4bc27f4b0-8" value="汽配龙app" style="shape=umlLifeline;perimeter=lifelinePerimeter;whiteSpace=wrap;html=1;container=1;collapsible=0;recursiveResize=0;outlineConnect=0;rounded=1;shadow=0;comic=0;labelBackgroundColor=none;strokeWidth=1;fontFamily=Verdana;fontSize=12;align=center;" parent="1" vertex="1">
          <mxGeometry x="70" y="80" width="150" height="1470" as="geometry" />
        </mxCell>
        <mxCell id="7baba1c4bc27f4b0-9" value="" style="html=1;points=[];perimeter=orthogonalPerimeter;rounded=0;shadow=0;comic=0;labelBackgroundColor=none;strokeWidth=1;fontFamily=Verdana;fontSize=12;align=center;" parent="7baba1c4bc27f4b0-8" vertex="1">
          <mxGeometry x="70" y="100" width="10" height="440" as="geometry" />
        </mxCell>
        <mxCell id="xyKEQfK3_lfIhWD5vXNs-3" value="返回结果" style="text;html=1;strokeColor=none;fillColor=none;align=center;verticalAlign=middle;whiteSpace=wrap;rounded=0;" parent="7baba1c4bc27f4b0-8" vertex="1">
          <mxGeometry x="110" y="120" width="60" height="30" as="geometry" />
        </mxCell>
        <mxCell id="xyKEQfK3_lfIhWD5vXNs-44" value="" style="html=1;points=[];perimeter=orthogonalPerimeter;fontColor=#000000;" parent="7baba1c4bc27f4b0-8" vertex="1">
          <mxGeometry x="70" y="905" width="10" height="180" as="geometry" />
        </mxCell>
        <mxCell id="xyKEQfK3_lfIhWD5vXNs-67" value="" style="html=1;points=[];perimeter=orthogonalPerimeter;fontColor=#000000;" parent="7baba1c4bc27f4b0-8" vertex="1">
          <mxGeometry x="70" y="1335" width="10" height="120" as="geometry" />
        </mxCell>
        <mxCell id="xyKEQfK3_lfIhWD5vXNs-74" value="return" style="html=1;verticalAlign=bottom;endArrow=open;dashed=1;endSize=8;rounded=0;fontColor=#000000;exitX=-0.292;exitY=0.755;exitDx=0;exitDy=0;exitPerimeter=0;" parent="7baba1c4bc27f4b0-8" edge="1">
          <mxGeometry relative="1" as="geometry">
            <mxPoint x="512.0800000000002" y="1411.3999999999999" as="sourcePoint" />
            <mxPoint x="80" y="1411" as="targetPoint" />
          </mxGeometry>
        </mxCell>
        <mxCell id="7baba1c4bc27f4b0-16" value="" style="html=1;points=[];perimeter=orthogonalPerimeter;rounded=0;shadow=0;comic=0;labelBackgroundColor=none;strokeWidth=1;fontFamily=Verdana;fontSize=12;align=center;" parent="1" vertex="1">
          <mxGeometry x="585" y="360" width="10" height="470" as="geometry" />
        </mxCell>
        <mxCell id="7baba1c4bc27f4b0-19" value="" style="html=1;points=[];perimeter=orthogonalPerimeter;rounded=0;shadow=0;comic=0;labelBackgroundColor=none;strokeWidth=1;fontFamily=Verdana;fontSize=12;align=center;" parent="1" vertex="1">
          <mxGeometry x="725" y="400" width="10" height="430" as="geometry" />
        </mxCell>
        <mxCell id="7baba1c4bc27f4b0-11" value="请求收银台,&lt;br&gt;携带用户id" style="html=1;verticalAlign=bottom;endArrow=block;entryX=0;entryY=0;labelBackgroundColor=none;fontFamily=Verdana;fontSize=12;edgeStyle=elbowEdgeStyle;elbow=vertical;" parent="1" source="7baba1c4bc27f4b0-9" target="7baba1c4bc27f4b0-10" edge="1">
          <mxGeometry relative="1" as="geometry">
            <mxPoint x="220" y="190" as="sourcePoint" />
          </mxGeometry>
        </mxCell>
        <mxCell id="xyKEQfK3_lfIhWD5vXNs-1" value="" style="endArrow=classic;html=1;rounded=0;entryX=1;entryY=0.07;entryDx=0;entryDy=0;entryPerimeter=0;" parent="1" edge="1">
          <mxGeometry width="50" height="50" relative="1" as="geometry">
            <mxPoint x="300" y="228" as="sourcePoint" />
            <mxPoint x="151" y="227.79999999999995" as="targetPoint" />
          </mxGeometry>
        </mxCell>
        <mxCell id="xyKEQfK3_lfIhWD5vXNs-4" value="" style="endArrow=classic;html=1;rounded=0;" parent="1" edge="1">
          <mxGeometry width="50" height="50" relative="1" as="geometry">
            <mxPoint x="150" y="334" as="sourcePoint" />
            <mxPoint x="449.5" y="334" as="targetPoint" />
          </mxGeometry>
        </mxCell>
        <mxCell id="xyKEQfK3_lfIhWD5vXNs-6" value="" style="endArrow=classic;html=1;rounded=0;exitX=-0.2;exitY=0.132;exitDx=0;exitDy=0;exitPerimeter=0;" parent="1" source="7baba1c4bc27f4b0-13" edge="1">
          <mxGeometry width="50" height="50" relative="1" as="geometry">
            <mxPoint x="442" y="372" as="sourcePoint" />
            <mxPoint x="306.32352941176464" y="372" as="targetPoint" />
          </mxGeometry>
        </mxCell>
        <mxCell id="xyKEQfK3_lfIhWD5vXNs-9" value="" style="endArrow=classic;html=1;rounded=0;" parent="1" edge="1">
          <mxGeometry width="50" height="50" relative="1" as="geometry">
            <mxPoint x="315" y="670" as="sourcePoint" />
            <mxPoint x="581" y="670" as="targetPoint" />
          </mxGeometry>
        </mxCell>
        <mxCell id="xyKEQfK3_lfIhWD5vXNs-11" value="携带openid支付" style="text;html=1;strokeColor=none;fillColor=none;align=center;verticalAlign=middle;whiteSpace=wrap;rounded=0;" parent="1" vertex="1">
          <mxGeometry x="455" y="646" width="100" height="30" as="geometry" />
        </mxCell>
        <mxCell id="xyKEQfK3_lfIhWD5vXNs-18" value="" style="endArrow=classic;html=1;rounded=0;exitX=1.365;exitY=0.694;exitDx=0;exitDy=0;exitPerimeter=0;" parent="1" edge="1">
          <mxGeometry width="50" height="50" relative="1" as="geometry">
            <mxPoint x="741.6499999999999" y="746.76" as="sourcePoint" />
            <mxPoint x="867.5" y="746.76" as="targetPoint" />
          </mxGeometry>
        </mxCell>
        <mxCell id="xyKEQfK3_lfIhWD5vXNs-19" value="支付" style="text;html=1;strokeColor=none;fillColor=none;align=center;verticalAlign=middle;whiteSpace=wrap;rounded=0;" parent="1" vertex="1">
          <mxGeometry x="770" y="727" width="60" height="30" as="geometry" />
        </mxCell>
        <mxCell id="xyKEQfK3_lfIhWD5vXNs-21" value="请求支付渠道" style="text;html=1;strokeColor=none;fillColor=none;align=center;verticalAlign=middle;whiteSpace=wrap;rounded=0;" parent="1" vertex="1">
          <mxGeometry x="650" y="647" width="60" height="30" as="geometry" />
        </mxCell>
        <mxCell id="xyKEQfK3_lfIhWD5vXNs-27" value="return" style="text;html=1;align=center;verticalAlign=middle;resizable=0;points=[];autosize=1;strokeColor=none;fillColor=none;" parent="1" vertex="1">
          <mxGeometry x="355" y="768" width="50" height="20" as="geometry" />
        </mxCell>
        <mxCell id="xyKEQfK3_lfIhWD5vXNs-28" value="" style="endArrow=classic;html=1;rounded=0;entryX=-0.253;entryY=0.93;entryDx=0;entryDy=0;entryPerimeter=0;" parent="1" edge="1">
          <mxGeometry width="50" height="50" relative="1" as="geometry">
            <mxPoint x="313.32352941176464" y="837.5" as="sourcePoint" />
            <mxPoint x="451.47" y="837.5" as="targetPoint" />
          </mxGeometry>
        </mxCell>
        <mxCell id="xyKEQfK3_lfIhWD5vXNs-29" value="返回结果" style="text;html=1;align=center;verticalAlign=middle;resizable=0;points=[];autosize=1;strokeColor=none;fillColor=none;" parent="1" vertex="1">
          <mxGeometry x="340" y="815" width="60" height="20" as="geometry" />
        </mxCell>
        <mxCell id="xyKEQfK3_lfIhWD5vXNs-30" value="微企付收银台" style="shape=umlLifeline;perimeter=lifelinePerimeter;whiteSpace=wrap;html=1;container=1;collapsible=0;recursiveResize=0;outlineConnect=0;rounded=1;shadow=0;comic=0;labelBackgroundColor=none;strokeWidth=1;fontFamily=Verdana;fontSize=12;align=center;" parent="1" vertex="1">
          <mxGeometry x="970" y="80" width="100" height="1490" as="geometry" />
        </mxCell>
        <mxCell id="xyKEQfK3_lfIhWD5vXNs-31" value="" style="html=1;points=[];perimeter=orthogonalPerimeter;" parent="xyKEQfK3_lfIhWD5vXNs-30" vertex="1">
          <mxGeometry x="45" y="531" width="10" height="300" as="geometry" />
        </mxCell>
        <mxCell id="xyKEQfK3_lfIhWD5vXNs-32" value="" style="endArrow=classic;html=1;rounded=0;entryX=0.5;entryY=0.87;entryDx=0;entryDy=0;entryPerimeter=0;" parent="1" edge="1">
          <mxGeometry width="50" height="50" relative="1" as="geometry">
            <mxPoint x="470" y="857" as="sourcePoint" />
            <mxPoint x="1016" y="857.1000000000001" as="targetPoint" />
          </mxGeometry>
        </mxCell>
        <mxCell id="xyKEQfK3_lfIhWD5vXNs-33" value="唤起微企付收银台" style="text;html=1;align=center;verticalAlign=middle;resizable=0;points=[];autosize=1;strokeColor=none;fillColor=none;" parent="1" vertex="1">
          <mxGeometry x="605" y="837" width="110" height="20" as="geometry" />
        </mxCell>
        <mxCell id="xyKEQfK3_lfIhWD5vXNs-41" value="" style="endArrow=classic;html=1;rounded=0;fontColor=#000000;" parent="1" edge="1">
          <mxGeometry width="50" height="50" relative="1" as="geometry">
            <mxPoint x="599" y="994.9999999999998" as="sourcePoint" />
            <mxPoint x="869.5" y="994.9999999999998" as="targetPoint" />
          </mxGeometry>
        </mxCell>
        <mxCell id="xyKEQfK3_lfIhWD5vXNs-42" value="查询" style="text;html=1;align=center;verticalAlign=middle;resizable=0;points=[];autosize=1;strokeColor=none;fillColor=none;fontColor=#000000;" parent="1" vertex="1">
          <mxGeometry x="680" y="971" width="40" height="20" as="geometry" />
        </mxCell>
        <mxCell id="xyKEQfK3_lfIhWD5vXNs-45" value="" style="endArrow=classic;html=1;rounded=0;fontColor=#000000;exitX=-0.016;exitY=0.943;exitDx=0;exitDy=0;exitPerimeter=0;" parent="1" edge="1">
          <mxGeometry width="50" height="50" relative="1" as="geometry">
            <mxPoint x="584.8399999999999" y="1049.02" as="sourcePoint" />
            <mxPoint x="144.44736842105272" y="1049.02" as="targetPoint" />
          </mxGeometry>
        </mxCell>
        <mxCell id="xyKEQfK3_lfIhWD5vXNs-46" value="支付结果通知" style="text;html=1;align=center;verticalAlign=middle;resizable=0;points=[];autosize=1;strokeColor=none;fillColor=none;fontColor=#000000;" parent="1" vertex="1">
          <mxGeometry x="295" y="1025" width="90" height="20" as="geometry" />
        </mxCell>
        <mxCell id="xyKEQfK3_lfIhWD5vXNs-47" value="return" style="html=1;verticalAlign=bottom;endArrow=open;dashed=1;endSize=8;rounded=0;fontColor=#000000;entryX=0.5;entryY=0.933;entryDx=0;entryDy=0;entryPerimeter=0;" parent="1" edge="1">
          <mxGeometry relative="1" as="geometry">
            <mxPoint x="150" y="1069" as="sourcePoint" />
            <mxPoint x="588" y="1068.95" as="targetPoint" />
          </mxGeometry>
        </mxCell>
        <mxCell id="xyKEQfK3_lfIhWD5vXNs-56" value="回调结果" style="text;html=1;align=center;verticalAlign=middle;resizable=0;points=[];autosize=1;strokeColor=none;fillColor=none;fontColor=#000000;" parent="1" vertex="1">
          <mxGeometry x="770" y="1165" width="60" height="20" as="geometry" />
        </mxCell>
        <mxCell id="xyKEQfK3_lfIhWD5vXNs-58" value="return" style="html=1;verticalAlign=bottom;endArrow=open;dashed=1;endSize=8;rounded=0;fontColor=#000000;" parent="1" edge="1">
          <mxGeometry relative="1" as="geometry">
            <mxPoint x="595" y="1227.9999999999998" as="sourcePoint" />
            <mxPoint x="729.4999999999998" y="1227.9999999999998" as="targetPoint" />
          </mxGeometry>
        </mxCell>
        <mxCell id="xyKEQfK3_lfIhWD5vXNs-59" value="返回ok" style="html=1;verticalAlign=bottom;endArrow=open;dashed=1;endSize=8;rounded=0;fontColor=#000000;" parent="1" edge="1">
          <mxGeometry relative="1" as="geometry">
            <mxPoint x="735" y="1235.0000000000002" as="sourcePoint" />
            <mxPoint x="869.4999999999998" y="1235.0000000000002" as="targetPoint" />
          </mxGeometry>
        </mxCell>
        <mxCell id="xyKEQfK3_lfIhWD5vXNs-64" value="&lt;font color=&quot;#000000&quot;&gt;return&lt;/font&gt;" style="html=1;verticalAlign=bottom;endArrow=open;dashed=1;endSize=8;rounded=0;fontColor=#FF6666;" parent="1" edge="1">
          <mxGeometry relative="1" as="geometry">
            <mxPoint x="320" y="1366" as="sourcePoint" />
            <mxPoint x="580" y="1366" as="targetPoint" />
          </mxGeometry>
        </mxCell>
        <mxCell id="xyKEQfK3_lfIhWD5vXNs-69" value="" style="endArrow=classic;html=1;rounded=0;fontColor=#000000;exitX=1.438;exitY=0.399;exitDx=0;exitDy=0;exitPerimeter=0;" parent="1" edge="1">
          <mxGeometry width="50" height="50" relative="1" as="geometry">
            <mxPoint x="154.37999999999988" y="1445.88" as="sourcePoint" />
            <mxPoint x="580" y="1446" as="targetPoint" />
          </mxGeometry>
        </mxCell>
        <mxCell id="xyKEQfK3_lfIhWD5vXNs-70" value="取消订单" style="text;html=1;align=center;verticalAlign=middle;resizable=0;points=[];autosize=1;strokeColor=none;fillColor=none;fontColor=#000000;" parent="1" vertex="1">
          <mxGeometry x="330" y="1425" width="60" height="20" as="geometry" />
        </mxCell>
        <mxCell id="xyKEQfK3_lfIhWD5vXNs-71" value="" style="endArrow=classic;html=1;rounded=0;fontColor=#000000;exitX=1.246;exitY=0.524;exitDx=0;exitDy=0;exitPerimeter=0;" parent="1" edge="1">
          <mxGeometry width="50" height="50" relative="1" as="geometry">
            <mxPoint x="599.46" y="1466.92" as="sourcePoint" />
            <mxPoint x="862" y="1467" as="targetPoint" />
          </mxGeometry>
        </mxCell>
        <mxCell id="xyKEQfK3_lfIhWD5vXNs-72" value="关单" style="text;html=1;align=center;verticalAlign=middle;resizable=0;points=[];autosize=1;strokeColor=none;fillColor=none;fontColor=#000000;" parent="1" vertex="1">
          <mxGeometry x="690" y="1445" width="40" height="20" as="geometry" />
        </mxCell>
        <mxCell id="4LSfCPXXrn_912--uWGv-3" value="支付单关单" style="html=1;verticalAlign=bottom;endArrow=block;rounded=0;exitX=1;exitY=0.5;exitDx=0;exitDy=0;exitPerimeter=0;" parent="1" edge="1">
          <mxGeometry width="80" relative="1" as="geometry">
            <mxPoint x="317" y="441" as="sourcePoint" />
            <mxPoint x="589.5" y="441" as="targetPoint" />
          </mxGeometry>
        </mxCell>
        <mxCell id="4LSfCPXXrn_912--uWGv-14" value="提示错误信息" style="rounded=1;whiteSpace=wrap;html=1;fontColor=#FF6666;" parent="1" vertex="1">
          <mxGeometry x="470" y="520" width="70" height="50" as="geometry" />
        </mxCell>
      </root>
    </mxGraphModel>
  </diagram>
</mxfile>
